<svg width="489" height="204" viewBox="0 0 489 204" fill="none" xmlns="http://www.w3.org/2000/svg">
<g clip-path="url(#clip0_278_144)">
<path d="M245.106 98.207C245.27 97.081 245.154 95.95 245.021 94.8264C244.888 93.7028 244.79 92.6906 244.808 91.6129C244.844 89.5483 245.241 87.4945 245.972 85.5407C246.389 84.4259 246.918 83.3512 247.547 82.3238C247.749 81.9946 247.196 81.6987 246.995 82.0278C244.712 85.7541 243.828 90.0249 244.315 94.2615C244.465 95.5726 244.658 96.89 244.466 98.2065C244.443 98.3647 244.63 98.498 244.786 98.4995C244.979 98.5015 245.084 98.3628 245.107 98.2065L245.106 98.207Z" fill="#5B3A2E"/>
<path d="M240.352 77.2502C241.17 78.5535 241.992 79.8534 242.833 81.144C243.552 82.2471 244.251 83.379 244.602 84.6325C244.809 85.3723 244.876 86.1282 244.829 86.8899C244.806 87.2669 245.446 87.2655 245.469 86.8899C245.553 85.5217 245.234 84.2052 244.627 82.959C244.02 81.7129 243.186 80.5678 242.435 79.3915C241.919 78.5828 241.415 77.7673 240.905 76.9548C240.7 76.6276 240.146 76.9226 240.352 77.2507L240.352 77.2502Z" fill="#5B3A2E"/>
<path d="M248.511 62.2494C246.498 64.7016 245.248 67.6183 244.609 70.6165C243.927 73.8155 243.894 77.135 244.185 80.3749C244.358 82.2974 244.661 84.2082 245.029 86.1067C245.101 86.4773 245.717 86.3201 245.646 85.9509C245.012 82.6734 244.6 79.3612 244.67 76.028C244.735 72.9409 245.192 69.8645 246.406 66.9689C247.067 65.3921 247.955 63.8959 249.064 62.5453C249.312 62.2435 248.756 61.9515 248.511 62.2494Z" fill="#5B3A2E"/>
<path d="M242.703 60.5349C244.455 63.1469 245.242 66.234 244.947 69.2859C244.911 69.6614 245.551 69.659 245.587 69.2859C245.892 66.1392 245.061 62.9305 243.256 60.239C243.041 59.9182 242.487 60.2121 242.704 60.5349H242.703Z" fill="#5B3A2E"/>
<path d="M248.192 51.3942C246.097 55.3686 245.015 59.7712 245.052 64.1845C245.062 65.4317 245.167 66.6744 245.352 67.9094C245.376 68.0676 245.595 68.1506 245.746 68.114C245.931 68.0695 245.993 67.9094 245.97 67.7536C245.334 63.516 245.787 59.1525 247.245 55.0907C247.663 53.9276 248.164 52.7923 248.745 51.6897C248.923 51.3517 248.371 51.0539 248.192 51.3937V51.3942Z" fill="#5B3A2E"/>
<path d="M244.09 39.3862C242.835 42.3942 243.295 45.7064 243.566 48.834C243.865 52.2834 244.164 55.7333 244.463 59.1828C244.633 61.1423 244.803 63.1019 244.973 65.0615C245.005 65.4351 245.645 65.438 245.613 65.0615C245.315 61.6282 245.017 58.1949 244.72 54.7616C244.571 53.0447 244.423 51.3283 244.274 49.6114C244.133 47.9887 243.954 46.3637 243.911 44.7356C243.864 42.9738 244.015 41.2008 244.707 39.542C244.854 39.1894 244.235 39.0366 244.09 39.3862Z" fill="#5B3A2E"/>
<path d="M247.368 82.4258C248.308 79.2953 250.737 76.8161 252.702 74.1949C254.721 71.5009 256.499 68.4865 259.464 66.546C260.991 65.5479 262.775 64.8623 264.672 64.8628C265.084 64.8628 265.085 64.2768 264.672 64.2768C261.086 64.2753 258.062 66.4474 255.924 68.9011C254.73 70.2708 253.715 71.7572 252.655 73.2134C251.638 74.6094 250.52 75.9381 249.478 77.3181C248.326 78.8455 247.292 80.4682 246.751 82.2696C246.641 82.6338 247.259 82.7891 247.368 82.4253V82.4258Z" fill="#5B3A2E"/>
<path d="M247.059 82.6407C248.06 82.7408 249.066 82.877 250.076 82.8287C250.977 82.7852 251.844 82.5835 252.665 82.2451C254.188 81.6177 255.451 80.5512 256.563 79.432C257.78 78.2073 258.943 76.9074 260.004 75.567C260.576 74.8458 261.102 74.0933 261.535 73.2949C261.974 72.4882 262.326 71.6449 262.655 70.7967C263.447 68.7522 264.206 66.6969 264.98 64.6469C265.115 64.29 264.497 64.1362 264.363 64.4912C263.691 66.2701 263.019 68.049 262.347 69.8284C261.719 71.4901 261.047 73.1045 259.978 74.5772C258.978 75.9567 257.799 77.2414 256.616 78.493C255.57 79.6005 254.431 80.6811 253.032 81.4155C252.217 81.8433 251.314 82.1411 250.375 82.2227C249.267 82.3184 248.158 82.1646 247.059 82.0547C246.649 82.0137 246.653 82.6001 247.059 82.6407H247.059Z" fill="#5B3A2E"/>
<path d="M240.961 77.2976C241.623 74.2066 242.296 70.9779 241.53 67.8478C241.144 66.2676 240.333 64.8179 239.54 63.3827C238.759 61.9705 237.969 60.5559 237.103 59.1852C236.238 57.8145 235.237 56.5322 233.839 55.5956C233.506 55.3725 233.186 55.8808 233.516 56.1015C234.711 56.9028 235.596 58.0152 236.349 59.1676C237.19 60.4538 237.937 61.7962 238.683 63.1303C239.428 64.4643 240.292 65.9219 240.756 67.4332C241.208 68.906 241.293 70.4447 241.19 71.9653C241.072 73.7095 240.71 75.4293 240.343 77.1413C240.264 77.5095 240.881 77.6672 240.961 77.2971V77.2976Z" fill="#5B3A2E"/>
<path d="M233.322 55.6996C231.416 58.7145 230.649 62.2977 231.149 65.7495C231.617 68.9797 233.237 71.9164 235.753 74.2178C237.132 75.4801 238.736 76.5329 240.467 77.3552C240.832 77.5286 241.156 77.0232 240.79 76.8493C237.848 75.4508 235.269 73.3662 233.612 70.7191C231.845 67.8947 231.288 64.5004 231.837 61.2991C232.157 59.4333 232.841 57.6304 233.875 55.9956C234.082 55.6684 233.529 55.373 233.322 55.6996Z" fill="#5B3A2E"/>
<path d="M248.932 62.5013C249.037 59.6847 250.255 57.0332 251.857 54.6649C253.503 52.2322 255.532 49.9996 257.739 47.978C258.987 46.8344 260.309 45.7596 261.694 44.7566C262.017 44.5227 261.562 44.1106 261.241 44.3421C258.718 46.1693 256.407 48.2378 254.363 50.5118C252.362 52.7371 250.53 55.1513 249.379 57.8497C248.745 59.3356 248.351 60.9041 248.292 62.5013C248.278 62.8783 248.918 62.8778 248.932 62.5013Z" fill="#5B3A2E"/>
<path d="M261.343 44.6331C261.722 46.3055 261.89 47.9931 261.37 49.6563C261.12 50.4557 260.768 51.2238 260.42 51.9904C260.072 52.7571 259.692 53.5936 259.328 54.3954C258.665 55.8564 258.087 57.4156 257.01 58.6749C256.117 59.7199 254.952 60.5529 253.659 61.1453C252.189 61.8182 250.552 62.1644 248.91 62.161C248.498 62.16 248.497 62.746 248.91 62.7469C251.957 62.7543 255.034 61.5955 257.079 59.507C258.262 58.2994 258.91 56.832 259.581 55.3529C259.965 54.5067 260.349 53.6605 260.733 52.8147C261.106 51.9924 261.5 51.174 261.81 50.3292C262.151 49.4044 262.348 48.4507 262.352 47.4731C262.355 46.4652 262.183 45.4622 261.959 44.4778C261.875 44.1086 261.258 44.2649 261.342 44.6336L261.343 44.6331Z" fill="#5B3A2E"/>
<path d="M234.561 34.5344C232.586 37.8339 232.421 41.7633 233.304 45.3743C233.773 47.291 234.529 49.1392 235.415 50.925C236.302 52.7107 237.26 54.391 238.425 55.9951C239.706 57.7593 241.191 59.402 242.855 60.8753C243.151 61.1375 243.605 60.7239 243.308 60.4607C241.863 59.1818 240.554 57.7774 239.403 56.2695C238.238 54.744 237.261 53.1184 236.383 51.4421C234.617 48.0703 233.276 44.4075 233.44 40.6241C233.528 38.6083 234.051 36.6053 235.113 34.8303C235.311 34.4992 234.759 34.2033 234.561 34.5344Z" fill="#5B3A2E"/>
<path d="M234.644 34.8195C237.024 37.4886 238.943 40.5078 240.312 43.7165C241.703 46.9779 242.508 50.4073 242.754 53.8993C242.832 55.0043 242.889 56.1123 242.927 57.2193C242.966 58.3263 242.961 59.4762 242.773 60.5906C242.711 60.9592 243.328 61.1184 243.39 60.7463C243.726 58.7501 243.561 56.7129 243.446 54.7055C243.339 52.8494 243.131 51.005 242.731 49.1817C241.974 45.7293 240.618 42.3844 238.744 39.3095C237.69 37.5795 236.466 35.9402 235.097 34.4054C234.836 34.1129 234.386 34.53 234.644 34.82V34.8195Z" fill="#5B3A2E"/>
<path d="M254.429 26.3683C253.384 27.698 252.745 29.2377 252.15 30.7695C251.845 31.5571 251.547 32.3482 251.205 33.1231C250.836 33.9562 250.422 34.7712 250 35.5818C248.359 38.7353 246.495 42.0133 246.574 45.6038C246.619 47.643 247.352 49.5889 248.114 51.4826C248.256 51.8337 248.875 51.6818 248.732 51.3268C248.064 49.6685 247.399 47.9682 247.246 46.1932C247.099 44.4754 247.459 42.7682 248.047 41.1422C248.635 39.5161 249.504 37.8817 250.335 36.2947C251.147 34.7448 251.894 33.1827 252.522 31.5615C253.18 29.8637 253.823 28.1404 254.982 26.6643C255.223 26.3576 254.668 26.0646 254.43 26.3683H254.429Z" fill="#5B3A2E"/>
<path d="M254.514 26.5871C255.432 28.222 256.337 29.87 256.773 31.6768C257.208 33.4835 257.216 35.2756 256.928 37.0545C256.356 40.5977 254.621 43.8562 252.494 46.8266C251.902 47.6543 251.278 48.4629 250.636 49.2588C250.081 49.9469 249.496 50.8444 248.563 51.1344C248.175 51.2551 248.342 51.8215 248.733 51.6994C249.599 51.4304 250.172 50.7951 250.705 50.1485C251.318 49.4058 251.915 48.6519 252.49 47.8838C253.618 46.3749 254.656 44.805 255.509 43.1501C257.248 39.7744 258.207 35.9846 257.544 32.2569C257.164 30.122 256.137 28.1976 255.067 26.2917C254.879 25.9562 254.326 26.2521 254.514 26.5876V26.5871Z" fill="#5B3A2E"/>
<path d="M240.9 6.71681C239.19 11.0506 238.057 15.5704 237.568 20.158C237.318 22.4965 237.306 24.8541 237.81 27.1663C238.269 29.2748 239.107 31.2993 240.115 33.2364C241.274 35.4631 242.665 37.5799 244.058 39.688C244.271 40.0103 244.825 39.7158 244.611 39.3921C242.196 35.741 239.726 31.9971 238.619 27.8069C238.026 25.5636 237.939 23.269 238.13 20.974C238.32 18.6921 238.706 16.4176 239.226 14.1797C239.803 11.6986 240.575 9.25847 241.517 6.87258C241.657 6.5171 241.039 6.36425 240.899 6.71681H240.9Z" fill="#5B3A2E"/>
<path d="M240.982 7.00149C244.115 9.91523 245.01 14.1342 245.755 18.0114C246.229 20.474 246.751 22.9424 247.054 25.4288C247.358 27.9153 247.323 30.185 246.909 32.5386C246.681 33.8346 246.344 35.1145 245.903 36.3636C245.691 36.9603 245.47 37.5633 245.187 38.1351C244.941 38.6327 244.629 39.1274 244.139 39.4565C243.81 39.6772 244.129 40.186 244.462 39.9624C245.41 39.3261 245.829 38.3104 246.216 37.3328C246.67 36.1839 247.033 35.0041 247.303 33.8077C247.838 31.4331 248.013 28.995 247.813 26.5773C247.6 23.9981 247.055 21.4423 246.572 18.8967C246.17 16.7838 245.781 14.6587 245.092 12.6048C244.348 10.3889 243.228 8.25547 241.435 6.58789C241.145 6.31883 240.693 6.73292 240.982 7.00246V7.00149Z" fill="#5B3A2E"/>
<path d="M247.576 82.2251C248.431 81.4604 249.287 80.6962 250.142 79.9315C250.997 79.1668 251.794 78.4744 252.563 77.696C253.316 76.9338 253.976 76.1037 254.641 75.277C255.306 74.4503 255.924 73.7056 256.683 73.0127C257.38 72.3764 258.172 71.8148 259.073 71.4423C259.184 71.3964 259.296 71.3544 259.409 71.3148C259.505 71.2816 259.463 71.14 259.367 71.1737C258.436 71.4974 257.61 72.0204 256.881 72.6357C256.106 73.2905 255.446 74.0464 254.815 74.8175C254.138 75.6456 253.491 76.4963 252.751 77.2805C252.001 78.076 251.173 78.8055 250.352 79.5394C249.497 80.3041 248.641 81.0683 247.786 81.833C247.678 81.9292 247.57 82.0254 247.463 82.1216C247.389 82.1875 247.502 82.291 247.576 82.2251Z" fill="#5B3A2E"/>
<path d="M240.372 76.6208C239.855 75.901 239.351 75.1734 238.87 74.4327C238.39 73.6919 237.927 72.9292 237.501 72.1547C237.079 71.3871 236.692 70.6038 236.352 69.803C236.012 69.0022 235.723 68.1911 235.494 67.3615C235.265 66.5318 235.1 65.6949 235.009 64.8471C234.998 64.7407 234.987 64.6338 234.978 64.5273C234.97 64.434 234.81 64.4331 234.818 64.5273C234.891 65.3838 235.039 66.2339 235.252 67.0704C235.464 67.9069 235.742 68.7282 236.069 69.5325C236.396 70.3367 236.776 71.1346 237.19 71.9105C237.604 72.6865 238.062 73.4575 238.541 74.209C239.02 74.9605 239.523 75.6974 240.041 76.4259C240.105 76.5158 240.169 76.6056 240.234 76.695C240.291 76.7736 240.429 76.6999 240.372 76.6213V76.6208Z" fill="#5B3A2E"/>
<path d="M248.82 62.493C249.562 61.9671 250.231 61.3631 250.868 60.7341C251.529 60.0822 252.164 59.4089 252.806 58.7423C253.474 58.0494 254.147 57.3609 254.808 56.6626C255.436 55.9985 256.041 55.3139 256.552 54.5687C257.064 53.8236 257.449 53.0989 257.771 52.3118C257.812 52.2121 257.852 52.1125 257.889 52.0124C257.923 51.9231 257.769 51.885 257.735 51.9734C257.435 52.7664 257.046 53.5306 256.577 54.2513C256.09 54.9994 255.51 55.687 254.893 56.3486C254.247 57.0415 253.581 57.7188 252.922 58.402C252.276 59.0724 251.636 59.7482 250.978 60.4089C250.35 61.0403 249.696 61.6536 248.974 62.1951C248.886 62.2611 248.797 62.326 248.707 62.3895C248.626 62.4471 248.74 62.5502 248.82 62.493Z" fill="#5B3A2E"/>
<path d="M242.729 60.0773C242.832 60.0773 242.832 59.9308 242.729 59.9308C242.626 59.9308 242.626 60.0773 242.729 60.0773Z" fill="#5B3A2E"/>
<path d="M248.717 51.1105C248.723 49.8658 248.811 48.6221 248.983 47.3876C249.151 46.1805 249.377 44.9661 249.756 43.7981C249.931 43.2561 250.147 42.7257 250.411 42.2145C250.646 41.7584 250.914 41.317 251.194 40.8834C251.759 40.0103 252.38 39.1674 252.926 38.2841C253.472 37.4007 253.927 36.5091 254.16 35.5354C254.189 35.4157 254.214 35.2956 254.235 35.175C254.252 35.0827 254.098 35.0432 254.081 35.1359C253.904 36.1253 253.477 37.054 252.957 37.9305C252.427 38.8246 251.808 39.6709 251.232 40.5401C250.635 41.4415 250.096 42.3707 249.733 43.3737C249.316 44.5242 249.077 45.7298 248.891 46.9277C248.705 48.1255 248.589 49.4073 248.563 50.6539C248.559 50.8058 248.558 50.9582 248.557 51.11C248.557 51.2043 248.716 51.2043 248.717 51.11V51.1105Z" fill="#5B3A2E"/>
<path d="M244.545 39.6118C244.603 38.162 244.435 36.7142 244.171 35.2863C243.906 33.8585 243.535 32.4141 243.187 30.9843C242.835 29.5384 242.515 28.0891 242.335 26.6159C242.155 25.1427 242.094 23.6782 242.157 22.2075C242.221 20.7249 242.411 19.2478 242.723 17.7917C242.762 17.609 242.803 17.4264 242.846 17.2443C242.867 17.1525 242.713 17.1129 242.692 17.2052C242.349 18.6648 242.124 20.1483 242.028 21.6386C241.932 23.1289 241.964 24.5816 242.111 26.0461C242.259 27.5105 242.544 28.9784 242.889 30.4262C243.231 31.8648 243.61 33.2965 243.903 34.7443C244.197 36.1922 244.402 37.621 244.396 39.0761C244.396 39.2548 244.392 39.4331 244.385 39.6118C244.381 39.706 244.541 39.706 244.545 39.6118Z" fill="#5B3A2E"/>
<path d="M242.806 60.2331C242.659 59.3336 242.397 58.4532 242.063 57.5972C241.729 56.7397 241.326 55.9062 240.899 55.0849C240.472 54.2635 240.014 53.4407 239.577 52.6169C239.139 51.7932 238.721 50.9674 238.363 50.1153C238.005 49.2632 237.713 48.396 237.527 47.5024C237.504 47.3925 237.483 47.2822 237.463 47.1713C237.447 47.0785 237.293 47.1181 237.309 47.2104C237.468 48.1094 237.74 48.9878 238.081 49.8424C238.422 50.6969 238.83 51.5309 239.26 52.3528C239.689 53.1746 240.147 53.9959 240.583 54.8207C241.019 55.6454 241.432 56.4707 241.783 57.3243C242.134 58.1778 242.418 59.0465 242.592 59.9411C242.613 60.0515 242.633 60.1618 242.651 60.2727C242.666 60.3654 242.821 60.3259 242.806 60.2336L242.806 60.2331Z" fill="#5B3A2E"/>
</g>
<path d="M244.5 0.25C252.776 0.25 260.218 6.16062 265.577 15.6074C270.941 25.0616 274.25 38.1056 274.25 52.5C274.25 66.8944 270.941 79.9384 265.577 89.3926C260.218 98.8394 252.776 104.75 244.5 104.75C236.224 104.75 228.782 98.8394 223.423 89.3926C218.06 79.9384 214.75 66.8944 214.75 52.5C214.75 38.1056 218.06 25.0616 223.423 15.6074C228.782 6.16062 236.224 0.25 244.5 0.25Z" stroke="#5B3A2E" stroke-width="0.5"/>
<path d="M92.7131 122.5C93.7265 123.513 94.2331 124.82 94.2331 126.42C94.2331 127.753 93.9398 129.113 93.3531 130.5L74.4731 178.5L73.5931 178.9L63.0331 145.38L49.9931 178.5L49.1131 178.9L31.3531 122.5H38.1531L52.4731 169.86L62.6331 144.1L55.8331 122.5H62.6331L76.9531 169.86L92.3931 130.5C92.9798 129.167 93.2731 127.78 93.2731 126.34C93.2731 124.9 92.8731 123.78 92.0731 122.98L92.7131 122.5ZM114.785 178.82C109.185 178.82 104.625 177.22 101.105 174.02C97.585 170.82 95.825 165.887 95.825 159.22C95.825 152.553 97.6383 147.38 101.265 143.7C104.945 140.02 109.585 138.18 115.185 138.18C120.838 138.18 125.425 139.78 128.945 142.98C132.465 146.18 134.225 151.113 134.225 157.78C134.225 164.447 132.385 169.62 128.705 173.3C125.078 176.98 120.438 178.82 114.785 178.82ZM115.345 138.82C111.292 138.82 107.932 140.633 105.265 144.26C102.598 147.833 101.265 152.847 101.265 159.3C101.265 165.7 102.492 170.447 104.945 173.54C107.398 176.633 110.652 178.18 114.705 178.18C118.758 178.18 122.118 176.393 124.785 172.82C127.452 169.193 128.785 164.18 128.785 157.78C128.785 151.327 127.558 146.553 125.105 143.46C122.652 140.367 119.398 138.82 115.345 138.82ZM154.308 141.94V140.26C151.908 141.22 149.721 143.167 147.748 146.1C145.775 148.98 144.735 151.7 144.628 154.26V178.5H139.028V138.5H144.628V151.22C145.481 148.127 147.108 145.22 149.508 142.5C151.908 139.727 154.628 138.287 157.668 138.18H157.988C159.055 138.18 159.935 138.553 160.628 139.3C161.375 139.993 161.748 140.873 161.748 141.94C161.748 143.007 161.375 143.887 160.628 144.58C159.935 145.273 159.055 145.62 157.988 145.62C156.921 145.62 156.041 145.273 155.348 144.58C154.655 143.887 154.308 143.007 154.308 141.94ZM167.378 139.14V138.5H169.058V130.5H174.658V138.5H186.898V139.14H174.658V168.26C174.658 171.727 175.031 174.233 175.778 175.78C176.578 177.327 178.205 178.1 180.658 178.1C183.165 178.1 185.698 177.593 188.258 176.58L188.498 177.22C185.831 178.233 182.765 178.74 179.298 178.74C175.885 178.74 173.325 178.047 171.618 176.66C169.911 175.22 169.058 172.393 169.058 168.18V139.14H167.378ZM225.675 178.5C223.488 178.5 221.808 178.02 220.635 177.06C219.515 176.1 218.928 175.14 218.875 174.18L218.795 172.82V147.7C218.795 143.487 217.675 140.793 215.435 139.62C214.368 139.087 213.008 138.82 211.355 138.82C208.048 138.82 205.062 140.18 202.395 142.9C199.782 145.567 198.475 147.967 198.475 150.1V178.5H192.875V118.58H198.475V147.62C199.328 145.327 200.955 143.193 203.355 141.22C205.755 139.193 208.448 138.18 211.435 138.18C216.608 138.18 220.048 139.087 221.755 140.9C223.515 142.66 224.395 144.953 224.395 147.78V172.82C224.395 174.367 224.688 175.567 225.275 176.42C225.915 177.22 226.528 177.647 227.115 177.7L228.075 177.86H230.555V178.5H225.675ZM242.384 192.82C240.677 196.607 238.57 198.5 236.064 198.5C234.944 198.5 233.637 198.313 232.144 197.94V197.3C233.37 197.62 234.464 197.78 235.424 197.78C238.144 197.78 240.224 196.127 241.664 192.82L248.384 178.5H248.304L233.424 138.5H239.024L251.424 171.86L263.664 146.5C264.304 145.38 264.624 144.047 264.624 142.5C264.624 140.953 264.197 139.78 263.344 138.98L263.824 138.5C264.037 138.607 264.304 138.927 264.624 139.46C264.997 139.993 265.21 140.473 265.264 140.9C265.37 141.327 265.424 141.727 265.424 142.1C265.424 143.54 265.104 145.007 264.464 146.5L249.104 178.5L242.384 192.82ZM305.516 178.5C300.823 178.5 297.863 177.273 296.636 174.82C296.37 174.287 296.236 173.807 296.236 173.38V118.58H301.836V172.82C301.836 174.367 302.13 175.567 302.716 176.42C303.356 177.22 303.996 177.647 304.636 177.7L305.516 177.86H307.996V178.5H305.516ZM320.626 178.5C318.439 178.5 316.759 178.02 315.586 177.06C314.466 176.1 313.879 175.14 313.826 174.18L313.746 172.82V138.5H319.346V172.82C319.346 174.367 319.639 175.567 320.226 176.42C320.866 177.22 321.479 177.647 322.066 177.7L323.026 177.86H325.506V178.5H320.626ZM314.226 129.54C313.586 128.9 313.266 128.1 313.266 127.14C313.266 126.18 313.586 125.38 314.226 124.74C314.866 124.047 315.666 123.7 316.626 123.7C317.586 123.7 318.386 124.047 319.026 124.74C319.719 125.38 320.066 126.18 320.066 127.14C320.066 128.1 319.719 128.9 319.026 129.54C318.386 130.18 317.586 130.5 316.626 130.5C315.666 130.5 314.866 130.18 314.226 129.54ZM356.673 138.98L357.153 138.5C357.366 138.607 357.633 138.927 357.953 139.46C358.326 139.993 358.54 140.473 358.593 140.9C358.7 141.327 358.753 141.727 358.753 142.1C358.753 143.54 358.433 145.007 357.793 146.5L342.433 178.5H341.633L326.753 138.5H332.353L344.593 171.62L356.993 146.5C357.633 145.38 357.953 144.047 357.953 142.5C357.953 140.953 357.526 139.78 356.673 138.98ZM371.329 178.5C369.142 178.5 367.462 178.02 366.289 177.06C365.169 176.1 364.582 175.14 364.529 174.18L364.449 172.82V138.5H370.049V172.82C370.049 174.367 370.342 175.567 370.929 176.42C371.569 177.22 372.182 177.647 372.769 177.7L373.729 177.86H376.209V178.5H371.329ZM364.929 129.54C364.289 128.9 363.969 128.1 363.969 127.14C363.969 126.18 364.289 125.38 364.929 124.74C365.569 124.047 366.369 123.7 367.329 123.7C368.289 123.7 369.089 124.047 369.729 124.74C370.422 125.38 370.769 126.18 370.769 127.14C370.769 128.1 370.422 128.9 369.729 129.54C369.089 130.18 368.289 130.5 367.329 130.5C366.369 130.5 365.569 130.18 364.929 129.54ZM414.259 178.5C412.073 178.5 410.393 178.02 409.219 177.06C408.099 176.1 407.513 175.14 407.459 174.18L407.379 172.82V147.7C407.379 143.487 406.286 140.793 404.099 139.62C402.979 139.087 401.593 138.82 399.939 138.82C396.526 138.82 393.459 140.18 390.739 142.9C388.019 145.567 386.659 147.967 386.659 150.1V178.5H381.059V138.5H386.659V147.62C387.566 145.327 389.246 143.193 391.699 141.22C394.153 139.193 396.846 138.18 399.779 138.18C402.713 138.18 405.086 138.473 406.899 139.06C408.766 139.593 410.126 140.367 410.979 141.38C412.313 143.033 412.979 145.167 412.979 147.78V172.82C412.979 174.367 413.273 175.567 413.859 176.42C414.499 177.22 415.139 177.647 415.779 177.7L416.659 177.86H419.139V178.5H414.259ZM421.988 159.94C421.988 153.007 423.668 147.647 427.028 143.86C430.388 140.073 435.428 138.18 442.148 138.18C447.108 138.18 452.148 139.06 457.268 140.82V179.46C457.214 192.153 451.668 198.5 440.628 198.5C434.548 198.5 429.348 196.527 425.028 192.58L425.588 192.1C430.174 195.94 435.188 197.86 440.628 197.86C447.988 197.86 451.668 191.727 451.668 179.46V171.54C450.654 173.407 448.974 175.06 446.628 176.5C444.281 177.94 441.508 178.66 438.308 178.66C427.428 178.393 421.988 172.153 421.988 159.94ZM438.388 178.02C441.961 178.02 445.028 177.06 447.588 175.14C450.148 173.22 451.508 171.327 451.668 169.46V141.22C447.828 139.62 444.574 138.82 441.908 138.82C437.161 138.82 433.588 140.687 431.188 144.42C428.788 148.1 427.588 153.273 427.588 159.94C427.588 171.993 431.188 178.02 438.388 178.02Z" fill="#5B3A2E"/>
<defs>
<clipPath id="clip0_278_144">
<rect width="34" height="92" fill="white" transform="translate(231 6.5)"/>
</clipPath>
</defs>
</svg>
